<?xml version="1.0" encoding="UTF-8" standalone="no"?>
<svg
   xmlns:dc="http://purl.org/dc/elements/1.1/"
   xmlns:cc="http://creativecommons.org/ns#"
   xmlns:rdf="http://www.w3.org/1999/02/22-rdf-syntax-ns#"
   xmlns:svg="http://www.w3.org/2000/svg"
   xmlns="http://www.w3.org/2000/svg"
   xmlns:xlink="http://www.w3.org/1999/xlink"
   xmlns:sodipodi="http://sodipodi.sourceforge.net/DTD/sodipodi-0.dtd"
   xmlns:inkscape="http://www.inkscape.org/namespaces/inkscape"
   id="svg4306"
   width="22"
   height="22"
   version="1.1"
   style="enable-background:new;opacity:1"
   sodipodi:docname="close.svg"
   inkscape:version="0.92.4 5da689c313, 2019-01-14">
  <metadata
     id="metadata31">
    <rdf:RDF>
      <cc:Work
         rdf:about="">
        <dc:format>image/svg+xml</dc:format>
        <dc:type
           rdf:resource="http://purl.org/dc/dcmitype/StillImage" />
        <dc:title></dc:title>
      </cc:Work>
    </rdf:RDF>
  </metadata>
  <defs
     id="defs29" />
  <sodipodi:namedview
     pagecolor="#ffffff"
     bordercolor="#666666"
     borderopacity="1"
     objecttolerance="10"
     gridtolerance="10"
     guidetolerance="10"
     inkscape:pageopacity="0"
     inkscape:pageshadow="2"
     inkscape:window-width="1920"
     inkscape:window-height="1020"
     id="namedview27"
     showgrid="false"
     inkscape:zoom="7.6"
     inkscape:cx="-8.2324148"
     inkscape:cy="-26.033952"
     inkscape:window-x="0"
     inkscape:window-y="0"
     inkscape:window-maximized="1"
     inkscape:current-layer="svg4306" />
  <g
     id="active-center">
    <rect
       id="rect4175"
       width="22"
       height="22"
       x="0"
       y="0"
       style="opacity:0.00100002;fill:#000000;fill-opacity:1;fill-rule:nonzero;stroke:none;stroke-width:2;stroke-linecap:round;stroke-linejoin:round;stroke-miterlimit:4;stroke-dasharray:none;stroke-opacity:1" />
    <g
       style="display:inline;opacity:1"
       id="titlebutton-close"
       transform="translate(-83.624992,158.63782)"
       inkscape:label="#g6254">
      <g
         transform="translate(-1207.375,-402.63782)"
         style="display:inline;opacity:1"
         id="g6202">
        <ellipse
           cy="255"
           cx="1302"
           style="display:inline;opacity:0.95;fill:#cd5b61;fill-opacity:0.95294118;stroke:none;stroke-width:0;stroke-linecap:butt;stroke-linejoin:miter;stroke-miterlimit:4;stroke-dasharray:none;stroke-dashoffset:0;stroke-opacity:1"
           id="ellipse6176"
           rx="6"
           ry="6.0000005" />
        <path
           inkscape:connector-curvature="0"
           id="path6178"
           d="m 1302,248 a 7,7 0 0 0 -7,7 7,7 0 0 0 7,7 7,7 0 0 0 7,-7 7,7 0 0 0 -7,-7 z m 0,1 a 6,6 0 0 1 6,6 6,6 0 0 1 -6,6 6,6 0 0 1 -6,-6 6,6 0 0 1 6,-6 z"
           style="display:inline;opacity:0.15;fill:#787b82;fill-opacity:1;stroke:none;stroke-width:0;stroke-linecap:butt;stroke-linejoin:miter;stroke-miterlimit:4;stroke-dasharray:none;stroke-dashoffset:0;stroke-opacity:1" />
        <g
           style="fill:#c0e3ff;fill-opacity:1;opacity:1"
           transform="translate(1294,247)"
           id="g6200">
          <g
             id="g6180"
             inkscape:label="status"
             style="display:inline;fill:#c0e3ff;fill-opacity:1;opacity:1"
             transform="translate(-81.0002,-967)" />
          <g
             style="fill:#c0e3ff;fill-opacity:1;opacity:1"
             id="g6182"
             inkscape:label="devices"
             transform="translate(-81.0002,-967)" />
          <g
             style="fill:#c0e3ff;fill-opacity:1;opacity:1"
             id="g6184"
             inkscape:label="apps"
             transform="translate(-81.0002,-967)" />
          <g
             style="fill:#c0e3ff;fill-opacity:1;opacity:1"
             id="g6186"
             inkscape:label="places"
             transform="translate(-81.0002,-967)" />
          <g
             style="fill:#c0e3ff;fill-opacity:1;opacity:1"
             id="g6188"
             inkscape:label="mimetypes"
             transform="translate(-81.0002,-967)" />
          <g
             id="g6190"
             inkscape:label="emblems"
             style="display:inline;fill:#c0e3ff;fill-opacity:1;opacity:1"
             transform="translate(-81.0002,-967)" />
          <g
             id="g6192"
             inkscape:label="emotes"
             style="display:inline;fill:#c0e3ff;fill-opacity:1;opacity:1"
             transform="translate(-81.0002,-967)" />
          <g
             id="g6194"
             inkscape:label="categories"
             style="display:inline;fill:#c0e3ff;fill-opacity:1;opacity:1"
             transform="translate(-81.0002,-967)" />
          <g
             id="g6198"
             inkscape:label="actions"
             style="display:inline;fill:#c0e3ff;fill-opacity:1;opacity:1"
             transform="translate(-81.0002,-967)" />
        </g>
      </g>
      <rect
         style="display:inline;opacity:1;fill:none;fill-opacity:1;stroke:none;stroke-width:1;stroke-linecap:butt;stroke-linejoin:miter;stroke-miterlimit:4;stroke-dasharray:none;stroke-dashoffset:0;stroke-opacity:0"
         id="rect6204"
         width="16"
         height="16"
         x="86.624992"
         y="-155.63782" />
    </g>
  </g>
  <g
     inkscape:label="#hover-center"
     id="hover-center"
     transform="matrix(1.375,0,0,1.375,-118.50802,241.61301)"
     style="display:inline;opacity:1">
    <g
       transform="translate(-1207.375,-402.63782)"
       style="display:inline;opacity:1"
       id="g6344">
      <ellipse
         cy="255"
         cx="1302"
         style="display:inline;opacity:0.95;fill:#cd5b61;fill-opacity:0.95294118;stroke:none;stroke-width:0;stroke-linecap:butt;stroke-linejoin:miter;stroke-miterlimit:4;stroke-dasharray:none;stroke-dashoffset:0;stroke-opacity:1"
         id="ellipse6320"
         rx="6"
         ry="6.0000005" />
      <path
         inkscape:connector-curvature="0"
         id="path6322"
         d="m 1302,248 a 7,7 0 0 0 -7,7 7,7 0 0 0 7,7 7,7 0 0 0 7,-7 7,7 0 0 0 -7,-7 z m 0,1 a 6,6 0 0 1 6,6 6,6 0 0 1 -6,6 6,6 0 0 1 -6,-6 6,6 0 0 1 6,-6 z"
         style="display:inline;opacity:0.15;fill:#787b82;fill-opacity:1;stroke:none;stroke-width:0;stroke-linecap:butt;stroke-linejoin:miter;stroke-miterlimit:4;stroke-dasharray:none;stroke-dashoffset:0;stroke-opacity:1" />
      <g
         style="fill:#c0e3ff;fill-opacity:1;opacity:1"
         transform="translate(1294,247)"
         id="g6342">
        <g
           id="g6324"
           inkscape:label="status"
           style="display:inline;fill:#c0e3ff;fill-opacity:1;opacity:1"
           transform="translate(-81.0002,-967)" />
        <g
           style="fill:#c0e3ff;fill-opacity:1;opacity:1"
           id="g6326"
           inkscape:label="devices"
           transform="translate(-81.0002,-967)" />
        <g
           style="fill:#c0e3ff;fill-opacity:1;opacity:1"
           id="g6328"
           inkscape:label="apps"
           transform="translate(-81.0002,-967)" />
        <g
           style="fill:#c0e3ff;fill-opacity:1;opacity:1"
           id="g6330"
           inkscape:label="places"
           transform="translate(-81.0002,-967)" />
        <g
           style="fill:#c0e3ff;fill-opacity:1;opacity:1"
           id="g6332"
           inkscape:label="mimetypes"
           transform="translate(-81.0002,-967)" />
        <g
           id="g6334"
           inkscape:label="emblems"
           style="display:inline;fill:#c0e3ff;fill-opacity:1;opacity:1"
           transform="translate(-81.0002,-967)" />
        <g
           id="g6336"
           inkscape:label="emotes"
           style="display:inline;fill:#c0e3ff;fill-opacity:1;opacity:1"
           transform="translate(-81.0002,-967)" />
        <g
           id="g6338"
           inkscape:label="categories"
           style="display:inline;fill:#c0e3ff;fill-opacity:1;opacity:1"
           transform="translate(-81.0002,-967)" />
        <g
           id="g6340"
           inkscape:label="actions"
           style="display:inline;fill:#c0e3ff;fill-opacity:1;opacity:1"
           transform="translate(-81.0002,-967)" />
      </g>
    </g>
    <path
       inkscape:connector-curvature="0"
       d="m 91.626212,-150.63773 h 0.75 c 0.008,-9e-5 0.0156,-3.5e-4 0.0234,0 0.19122,0.008 0.3824,0.0964 0.51563,0.23437 l 1.71093,1.71094 1.73438,-1.71094 c 0.19922,-0.17287 0.335,-0.22912 0.51562,-0.23437 h 0.75 v 0.75 c 0,0.21485 -0.0257,0.41298 -0.1875,0.5625 l -1.71093,1.71093 1.6875,1.6875 c 0.14114,0.14113 0.21093,0.34009 0.21093,0.53907 v 0.75 h -0.75 c -0.19897,-1e-5 -0.39793,-0.0698 -0.53906,-0.21094 l -1.71094,-1.71094 -1.71093,1.71094 c -0.14113,0.14114 -0.3401,0.21094 -0.53907,0.21094 h -0.75 v -0.75 c 0,-0.19897 0.0698,-0.39794 0.21094,-0.53907 l 1.71094,-1.6875 -1.71094,-1.71093 c -0.15805,-0.14598 -0.22737,-0.35194 -0.21094,-0.5625 v -0.75 z"
       id="path6346"
       style="color:#bebebe;font-style:normal;font-variant:normal;font-weight:normal;font-stretch:normal;font-size:medium;line-height:normal;font-family:'Andale Mono';-inkscape-font-specification:'Andale Mono';text-indent:0;text-align:start;text-decoration:none;text-decoration-line:none;letter-spacing:normal;word-spacing:normal;text-transform:none;writing-mode:lr-tb;direction:ltr;text-anchor:start;display:inline;overflow:visible;visibility:visible;opacity:1;fill:#ffffff;fill-opacity:1;fill-rule:nonzero;stroke:none;stroke-width:1.78124988;marker:none;enable-background:new" />
    <rect
       style="display:inline;opacity:1;fill:none;fill-opacity:1;stroke:none;stroke-width:1;stroke-linecap:butt;stroke-linejoin:miter;stroke-miterlimit:4;stroke-dasharray:none;stroke-dashoffset:0;stroke-opacity:0"
       id="rect6348"
       width="16"
       height="16"
       x="86.624992"
       y="-155.63782" />
  </g>
  <g
     inkscape:label="#pressed-center"
     transform="matrix(1.375,0,0,1.375,-118.50802,272.98938)"
     id="pressed-center"
     style="display:inline;opacity:1">
    <g
       id="g6440"
       style="display:inline;opacity:1"
       transform="translate(-1207.375,-402.63782)">
      <ellipse
         ry="6.0000005"
         rx="6"
         id="ellipse6416"
         style="display:inline;opacity:0.95;fill:#cd5b61;fill-opacity:0.95294118;stroke:none;stroke-width:0;stroke-linecap:butt;stroke-linejoin:miter;stroke-miterlimit:4;stroke-dasharray:none;stroke-dashoffset:0;stroke-opacity:1"
         cx="1302"
         cy="255" />
      <path
         style="display:inline;opacity:0.15;fill:#787b82;fill-opacity:1;stroke:none;stroke-width:0;stroke-linecap:butt;stroke-linejoin:miter;stroke-miterlimit:4;stroke-dasharray:none;stroke-dashoffset:0;stroke-opacity:1"
         d="m 1302,248 a 7,7 0 0 0 -7,7 7,7 0 0 0 7,7 7,7 0 0 0 7,-7 7,7 0 0 0 -7,-7 z m 0,1 a 6,6 0 0 1 6,6 6,6 0 0 1 -6,6 6,6 0 0 1 -6,-6 6,6 0 0 1 6,-6 z"
         id="path6418"
         inkscape:connector-curvature="0" />
      <g
         id="g6438"
         transform="translate(1294,247)"
         style="fill:#c0e3ff;fill-opacity:1;opacity:1">
        <g
           transform="translate(-81.0002,-967)"
           style="display:inline;fill:#c0e3ff;fill-opacity:1;opacity:1"
           inkscape:label="status"
           id="g6420" />
        <g
           transform="translate(-81.0002,-967)"
           inkscape:label="devices"
           id="g6422"
           style="fill:#c0e3ff;fill-opacity:1;opacity:1" />
        <g
           transform="translate(-81.0002,-967)"
           inkscape:label="apps"
           id="g6424"
           style="fill:#c0e3ff;fill-opacity:1;opacity:1" />
        <g
           transform="translate(-81.0002,-967)"
           inkscape:label="places"
           id="g6426"
           style="fill:#c0e3ff;fill-opacity:1;opacity:1" />
        <g
           transform="translate(-81.0002,-967)"
           inkscape:label="mimetypes"
           id="g6428"
           style="fill:#c0e3ff;fill-opacity:1;opacity:1" />
        <g
           transform="translate(-81.0002,-967)"
           style="display:inline;fill:#c0e3ff;fill-opacity:1;opacity:1"
           inkscape:label="emblems"
           id="g6430" />
        <g
           transform="translate(-81.0002,-967)"
           style="display:inline;fill:#c0e3ff;fill-opacity:1;opacity:1"
           inkscape:label="emotes"
           id="g6432" />
        <g
           transform="translate(-81.0002,-967)"
           style="display:inline;fill:#c0e3ff;fill-opacity:1;opacity:1"
           inkscape:label="categories"
           id="g6434" />
        <g
           transform="translate(-81.0002,-967)"
           style="display:inline;fill:#c0e3ff;fill-opacity:1;opacity:1"
           inkscape:label="actions"
           id="g6436" />
      </g>
    </g>
    <path
       style="color:#bebebe;font-style:normal;font-variant:normal;font-weight:normal;font-stretch:normal;font-size:medium;line-height:normal;font-family:'Andale Mono';-inkscape-font-specification:'Andale Mono';text-indent:0;text-align:start;text-decoration:none;text-decoration-line:none;letter-spacing:normal;word-spacing:normal;text-transform:none;writing-mode:lr-tb;direction:ltr;text-anchor:start;display:inline;overflow:visible;visibility:visible;opacity:0.25;fill:#000000;fill-opacity:1;fill-rule:nonzero;stroke:none;stroke-width:1.78124988;marker:none;enable-background:new"
       id="path6442"
       d="m 91.626212,-150.63773 h 0.75 c 0.008,-9e-5 0.0156,-3.5e-4 0.0234,0 0.19122,0.008 0.3824,0.0964 0.51563,0.23437 l 1.71093,1.71094 1.73438,-1.71094 c 0.19922,-0.17287 0.335,-0.22912 0.51562,-0.23437 h 0.75 v 0.75 c 0,0.21485 -0.0257,0.41298 -0.1875,0.5625 l -1.71093,1.71093 1.6875,1.6875 c 0.14114,0.14113 0.21093,0.34009 0.21093,0.53907 v 0.75 h -0.75 c -0.19897,-1e-5 -0.39793,-0.0698 -0.53906,-0.21094 l -1.71094,-1.71094 -1.71093,1.71094 c -0.14113,0.14114 -0.3401,0.21094 -0.53907,0.21094 h -0.75 v -0.75 c 0,-0.19897 0.0698,-0.39794 0.21094,-0.53907 l 1.71094,-1.6875 -1.71094,-1.71093 c -0.15805,-0.14598 -0.22737,-0.35194 -0.21094,-0.5625 v -0.75 z"
       inkscape:connector-curvature="0" />
    <rect
       y="-155.63782"
       x="86.624992"
       height="16"
       width="16"
       id="rect6444"
       style="display:inline;opacity:1;fill:none;fill-opacity:1;stroke:none;stroke-width:1;stroke-linecap:butt;stroke-linejoin:miter;stroke-miterlimit:4;stroke-dasharray:none;stroke-dashoffset:0;stroke-opacity:0" />
  </g>
  <g
     id="inactive-center"
     transform="translate(-40.868375,-0.26366679)">
    <rect
       id="rect4225"
       width="22"
       height="22"
       x="69"
       y="0"
       style="opacity:0.00100002;fill:#000000;fill-opacity:1;fill-rule:nonzero;stroke:none;stroke-width:2;stroke-linecap:round;stroke-linejoin:round;stroke-miterlimit:4;stroke-dasharray:none;stroke-opacity:1" />
    <g
       style="display:inline;opacity:1"
       transform="translate(-14.624992,158.63782)"
       id="titlebutton-close-backdrop"
       inkscape:label="#g6536">
      <g
         id="g6532"
         style="display:inline;opacity:1"
         transform="translate(-1207.375,-402.63782)">
        <ellipse
           cy="255"
           cx="1302"
           style="display:inline;opacity:0.95;fill:#787b82;fill-opacity:1;stroke:none;stroke-width:0;stroke-linecap:butt;stroke-linejoin:miter;stroke-miterlimit:4;stroke-dasharray:none;stroke-dashoffset:0;stroke-opacity:1"
           id="ellipse6508"
           rx="6"
           ry="6.0000005" />
        <path
           style="display:inline;opacity:0.15;fill:#787b82;fill-opacity:1;stroke:none;stroke-width:0;stroke-linecap:butt;stroke-linejoin:miter;stroke-miterlimit:4;stroke-dasharray:none;stroke-dashoffset:0;stroke-opacity:1"
           d="m 1302,248 a 7,7 0 0 0 -7,7 7,7 0 0 0 7,7 7,7 0 0 0 7,-7 7,7 0 0 0 -7,-7 z m 0,1 a 6,6 0 0 1 6,6 6,6 0 0 1 -6,6 6,6 0 0 1 -6,-6 6,6 0 0 1 6,-6 z"
           id="path6510"
           inkscape:connector-curvature="0" />
        <g
           id="g6530"
           transform="translate(1294,247)"
           style="fill:#c0e3ff;fill-opacity:1;opacity:1">
          <g
             transform="translate(-81.0002,-967)"
             style="display:inline;fill:#c0e3ff;fill-opacity:1;opacity:1"
             inkscape:label="status"
             id="g6512" />
          <g
             transform="translate(-81.0002,-967)"
             inkscape:label="devices"
             id="g6514"
             style="fill:#c0e3ff;fill-opacity:1;opacity:1" />
          <g
             transform="translate(-81.0002,-967)"
             inkscape:label="apps"
             id="g6516"
             style="fill:#c0e3ff;fill-opacity:1;opacity:1" />
          <g
             transform="translate(-81.0002,-967)"
             inkscape:label="places"
             id="g6518"
             style="fill:#c0e3ff;fill-opacity:1;opacity:1" />
          <g
             transform="translate(-81.0002,-967)"
             inkscape:label="mimetypes"
             id="g6520"
             style="fill:#c0e3ff;fill-opacity:1;opacity:1" />
          <g
             transform="translate(-81.0002,-967)"
             style="display:inline;fill:#c0e3ff;fill-opacity:1;opacity:1"
             inkscape:label="emblems"
             id="g6522" />
          <g
             transform="translate(-81.0002,-967)"
             style="display:inline;fill:#c0e3ff;fill-opacity:1;opacity:1"
             inkscape:label="emotes"
             id="g6524" />
          <g
             transform="translate(-81.0002,-967)"
             style="display:inline;fill:#c0e3ff;fill-opacity:1;opacity:1"
             inkscape:label="categories"
             id="g6526" />
          <g
             transform="translate(-81.0002,-967)"
             style="display:inline;fill:#c0e3ff;fill-opacity:1;opacity:1"
             inkscape:label="actions"
             id="g6528" />
        </g>
      </g>
      <rect
         y="-155.63782"
         x="86.624992"
         height="16"
         width="16"
         id="rect6534"
         style="display:inline;opacity:1;fill:none;fill-opacity:1;stroke:none;stroke-width:1;stroke-linecap:butt;stroke-linejoin:miter;stroke-miterlimit:4;stroke-dasharray:none;stroke-dashoffset:0;stroke-opacity:0" />
    </g>
  </g>
  <use
     x="0"
     y="0"
     xlink:href="#inactive-center"
     id="deactivated-center"
     transform="translate(29.530697)"
     width="100%"
     height="100%" />
</svg>
